<svg xmlns="http://www.w3.org/2000/svg" width="135" height="64" viewBox="0 0 135 64"><path d="M96.69.041l-21.405 22.5-9.707-.268-1.128 3.292 7.754.214-20.948 22.02 8.796-25.679c-23.029.251-41.035 2.39-51.112 5.846-14.521 4.98-12.912 11.717 18.134 16.941.728 4.753 8.169 7.117 10.901.833l3.236.173 1.282-3.742-4.582-.245c-1.313-3.884-7.197-5.381-10.183-.865-20.907-1.889-21.615-8.561-9.975-11.367 12.698-3.062 24.527-3.474 35.63-3.739l-12.998 37.945 35.05-38.031 6.664.184-7.611 22.219h5.681l7.558-22.064c15.469-.237 37.13 2.831 37.958 6.977h-18.474l-1.151 3.359h20.105c-2.495 5.564-20.386 7.05-38.182 7.819l-1.372 3.909c29.512-1.383 48.628-5.667 48.301-12.666-.284-6.064-12.633-11.765-46.058-12.689zm-10.548 14.21l-2.915 8.509-4.805-.133z" fill="#fff"/></svg>